<svg width="40" height="40" viewBox="0 0 40 40" fill="none" xmlns="http://www.w3.org/2000/svg">
<path d="M20.3818 14.2837C20.2824 13.8862 19.7175 13.8862 19.6181 14.2837L19.2473 15.7671C18.9535 16.9423 18.0359 17.8598 16.8607 18.1536L15.3774 18.5245C14.9798 18.6238 14.9798 19.1888 15.3774 19.2882L16.8607 19.659C18.0359 19.9528 18.9535 20.8704 19.2473 22.0456L19.6181 23.5289C19.7175 23.9264 20.2824 23.9264 20.3818 23.5289L20.7527 22.0456C21.0465 20.8704 21.964 19.9528 23.1392 19.659L24.6226 19.2882C25.0201 19.1888 25.0201 18.6238 24.6226 18.5245L23.1392 18.1536C21.964 17.8598 21.0465 16.9423 20.7527 15.7671L20.3818 14.2837Z" fill="black" fill-opacity="0.84"/>
<path fill-rule="evenodd" clip-rule="evenodd" d="M12.2681 29.9158C15.5875 29.3456 21.4045 28.2433 23.7685 27.1583C27.4235 25.833 30 22.6376 30 18.9062C30 13.9874 25.5228 9.99994 20 9.99994C14.4772 9.99994 10 13.9874 10 18.9062C10 21.3739 11.1269 23.6073 12.9474 25.2203C13.3464 25.5737 13.4217 26.1869 13.0724 26.5896L11.4553 28.4542C10.9033 29.0907 11.4377 30.0584 12.2681 29.9158ZM23.1428 25.7951L23.1991 25.7693L23.2572 25.7482C26.4237 24.6 28.5 21.9015 28.5 18.9062C28.5 14.9745 24.8625 11.4999 20 11.4999C15.1375 11.4999 11.5 14.9745 11.5 18.9062C11.5 20.8977 12.4061 22.7366 13.9421 24.0975C14.8815 24.9298 15.157 26.4754 14.2056 27.5723L13.7171 28.1356C15.0622 27.8897 16.5861 27.5924 18.0503 27.266C20.2254 26.7813 22.1239 26.2627 23.1428 25.7951Z" fill="black" fill-opacity="0.84"/>
</svg>
