<svg width="40" height="40" viewBox="0 0 40 40" fill="none" xmlns="http://www.w3.org/2000/svg">
<path d="M27.5 16C27.5 14.067 25.933 12.5 24 12.5H16C14.067 12.5 12.5 14.067 12.5 16V24C12.5 25.933 14.067 27.5 16 27.5H24C25.933 27.5 27.5 25.933 27.5 24V16ZM29 24C29 26.7614 26.7614 29 24 29H16C13.2386 29 11 26.7614 11 24V16C11 13.2386 13.2386 11 16 11H24C26.7614 11 29 13.2386 29 16V24Z" fill="black" fill-opacity="0.84"/>
<path d="M18.5996 22.7454H18.6816C19.0918 22.7454 19.4355 22.6848 19.7129 22.5637C19.9941 22.4387 20.2188 22.261 20.3867 22.0305C20.5547 21.7961 20.6758 21.5168 20.75 21.1926C20.8242 20.8684 20.8613 20.5051 20.8613 20.1028V18.5325C20.8613 18.2083 20.8359 17.927 20.7852 17.6887C20.7383 17.4465 20.6699 17.2454 20.5801 17.0852C20.4941 16.9211 20.3945 16.7981 20.2812 16.7161C20.1719 16.6301 20.0566 16.5872 19.9355 16.5872C19.7871 16.5872 19.6562 16.634 19.543 16.7278C19.4297 16.8215 19.334 16.9485 19.2559 17.1086C19.1816 17.2688 19.125 17.4524 19.0859 17.6594C19.0469 17.8625 19.0273 18.0774 19.0273 18.304C19.0273 18.5305 19.0449 18.7454 19.0801 18.9485C19.1191 19.1516 19.1758 19.3313 19.25 19.4875C19.3281 19.6438 19.4277 19.7668 19.5488 19.8567C19.6699 19.9465 19.8125 19.9915 19.9766 19.9915C20.1133 19.9915 20.2402 19.9524 20.3574 19.8743C20.4746 19.7961 20.5781 19.6926 20.668 19.5637C20.7617 19.4348 20.8359 19.2903 20.8906 19.1301C20.9453 18.9661 20.9766 18.8 20.9844 18.6321L21.5059 18.884C21.5059 19.1653 21.457 19.4426 21.3594 19.7161C21.2617 19.9895 21.127 20.2395 20.9551 20.4661C20.7832 20.6887 20.582 20.8665 20.3516 20.9993C20.125 21.1321 19.8789 21.1985 19.6133 21.1985C19.2695 21.1985 18.9668 21.1243 18.7051 20.9758C18.4434 20.8274 18.2246 20.6223 18.0488 20.3606C17.877 20.0989 17.748 19.7942 17.6621 19.4465C17.5762 19.0989 17.5332 18.7278 17.5332 18.3333C17.5332 17.9231 17.5879 17.5364 17.6973 17.1731C17.8066 16.8098 17.9648 16.4915 18.1719 16.218C18.3789 15.9407 18.6309 15.7239 18.9277 15.5676C19.2285 15.4075 19.5664 15.3274 19.9414 15.3274C20.3242 15.3274 20.6641 15.4133 20.9609 15.5852C21.2617 15.7571 21.5156 15.9993 21.7227 16.3118C21.9297 16.6243 22.0879 16.9934 22.1973 17.4192C22.3066 17.8411 22.3613 18.304 22.3613 18.8079V19.3469C22.3613 19.8821 22.3184 20.3879 22.2324 20.8645C22.1465 21.3372 22.0117 21.7688 21.8281 22.1594C21.6484 22.5461 21.4141 22.8821 21.125 23.1672C20.8398 23.4485 20.4961 23.6672 20.0938 23.8235C19.6953 23.9758 19.2324 24.052 18.7051 24.052H18.5996V22.7454Z" fill="black" fill-opacity="0.84"/>
</svg>
