<svg width="40" height="40" viewBox="0 0 40 40" fill="none" xmlns="http://www.w3.org/2000/svg">
<path d="M18.0732 10.0355C18.2867 9.96727 18.5194 9.99807 18.7078 10.1194C19.7352 10.7816 20.2626 11.7103 20.592 12.6453C20.7547 13.1071 20.873 13.5814 20.9775 14.0291C21.0849 14.489 21.175 14.9079 21.2888 15.3187L21.2991 15.3506C21.3313 15.444 21.4253 15.6625 21.6091 15.8589C21.7995 16.0623 22.0937 16.2547 22.5881 16.2547C23.0514 16.2547 23.322 16.107 23.491 15.96C23.6748 15.8001 23.7801 15.6024 23.8362 15.4669L23.8528 15.4217C23.8918 15.3024 23.9341 15.0902 23.9844 14.8214C24.0077 14.6965 24.0356 14.5453 24.0652 14.4315C24.0766 14.3877 24.105 14.2793 24.1609 14.1746C24.1792 14.1404 24.2651 13.9756 24.4575 13.8624C24.5746 13.7935 24.7408 13.7387 24.9355 13.7623C25.1004 13.7822 25.2263 13.8511 25.3113 13.9168L25.3452 13.9446L25.4072 14.0001C25.8993 14.4493 29 17.4722 29 22.4776L28.9983 22.6246C28.9273 25.7034 26.6319 28.1939 23.6462 29.303C23.3233 29.423 22.96 29.3075 22.7656 29.023C22.5713 28.7385 22.596 28.3581 22.8252 28.1009C23.3097 27.5572 23.5823 26.8361 23.6145 26.0391L23.6177 25.8787C23.6177 25.1689 23.1731 24.3417 22.342 23.3709C21.6642 22.5792 20.8327 21.8044 19.998 21.0115C19.1571 21.8007 18.3346 22.5376 17.6531 23.3179C16.8338 24.256 16.3823 25.0859 16.3823 25.8787L16.3855 26.0391C16.4177 26.8362 16.6901 27.5573 17.1746 28.1009L17.2153 28.1505C17.4062 28.4052 17.4163 28.7563 17.2341 29.023C17.0398 29.3075 16.6765 29.423 16.3535 29.303C13.3679 28.1938 11.0727 25.7033 11.0017 22.6246L11 22.4776C11 19.7033 12.2367 17.9662 13.6328 16.3067C15.0305 14.6454 16.5685 13.0693 17.605 10.4717L17.6216 10.4334C17.7097 10.2441 17.8731 10.0994 18.0732 10.0355Z" fill="black" fill-opacity="0.84"/>
</svg>
