<svg width="40" height="40" viewBox="0 0 40 40" fill="none" xmlns="http://www.w3.org/2000/svg">
<path d="M11.25 21.875V14.375L13.125 13.125H16.25L20 10.625L23.75 13.125H26.875L28.75 14.375V21.875L25 27.5L21.6312 28.7633L18.3333 28.75L15 27.5L11.25 21.875Z" fill="url(#paint0_linear_16_568)"/>
<path d="M28.75 21.875L25 27.5L21.25 28.75H20V10.625L23.75 13.125H26.875L28.75 14.375V21.875Z" fill="url(#paint1_linear_16_568)"/>
<path d="M17.5823 10.892C18.9822 9.65569 21.1043 9.69678 22.4554 11.0005L23.6548 12.1578L23.6892 12.1899C24.0489 12.5145 24.5517 12.6317 25.0195 12.4974L25.7239 12.295C27.7839 11.7032 29.8489 13.2131 29.9098 15.3555L29.9907 18.2055C30.1164 22.6314 27.6346 26.7159 23.6569 28.6459L23.5626 28.6911L21.6106 29.6161C20.5912 30.0992 19.4085 30.0977 18.3904 29.6121L16.4419 28.6827C12.4408 26.7742 9.93346 22.6942 10.0383 18.2625L10.1058 15.4069C10.157 13.2459 12.2475 11.7239 14.3198 12.3389L14.8398 12.4932L14.8846 12.5058C15.3483 12.6269 15.8433 12.5036 16.1963 12.1762L17.5161 10.9518L17.5823 10.892ZM21.5875 11.9001C20.6923 11.0363 19.2782 11.0224 18.3662 11.8683L17.0463 13.0926C16.3581 13.7309 15.384 13.9586 14.4841 13.6916L13.9641 13.5373C12.6813 13.1566 11.3872 14.0988 11.3556 15.4366L11.288 18.292C11.1947 22.2313 13.4236 25.8581 16.9801 27.5545L18.9285 28.4838C19.6072 28.8076 20.3957 28.8087 21.0753 28.4866L23.0275 27.5616L23.1945 27.4805C26.6816 25.7486 28.852 22.1441 28.7412 18.2409L28.6603 15.391C28.6226 14.0647 27.3442 13.13 26.069 13.4964L25.3647 13.6988C24.4811 13.9527 23.5312 13.7311 22.8518 13.1179L22.7869 13.0573L21.5875 11.9001Z" fill="url(#paint2_linear_16_568)"/>
<path d="M23.4697 17.3013C23.773 17.0205 24.2466 17.0239 24.5457 17.3159C24.8448 17.6079 24.8597 18.0813 24.5864 18.3912L24.559 18.4208L19.6904 23.4081C19.2649 23.844 18.5773 23.8732 18.1171 23.4841L18.0733 23.4451L15.4665 21.0082L15.4378 20.98C15.1506 20.6828 15.1438 20.2094 15.4293 19.9041C15.7147 19.5987 16.1875 19.5735 16.5034 19.8401L16.5334 19.8668L18.8498 22.0321L23.4409 17.3292L23.4697 17.3013Z" fill="#288419"/>
<path d="M23.4409 16.5793C23.7423 16.2705 24.237 16.2646 24.5457 16.566C24.8545 16.8674 24.8604 17.3621 24.559 17.6708L19.434 22.9208C19.1372 23.2248 18.6519 23.2359 18.3415 22.9457L15.4665 20.2582L15.4378 20.23C15.1506 19.9329 15.1438 19.4594 15.4293 19.1541C15.7147 18.8487 16.1875 18.8235 16.5034 19.0901L16.5334 19.1169L18.8498 21.2821L23.4409 16.5793Z" fill="white"/>
<defs>
<linearGradient id="paint0_linear_16_568" x1="20.0054" y1="11.25" x2="20.1099" y2="29.3744" gradientUnits="userSpaceOnUse">
<stop stop-color="#7BD66D"/>
<stop offset="1" stop-color="#399F29"/>
</linearGradient>
<linearGradient id="paint1_linear_16_568" x1="24.375" y1="10.625" x2="24.375" y2="30" gradientUnits="userSpaceOnUse">
<stop stop-color="#69CC5B"/>
<stop offset="1" stop-color="#399F29"/>
</linearGradient>
<linearGradient id="paint2_linear_16_568" x1="20.0005" y1="11.2501" x2="20.0005" y2="28.7501" gradientUnits="userSpaceOnUse">
<stop offset="0.00833332" stop-color="#399F29"/>
<stop offset="1" stop-color="#288419"/>
</linearGradient>
</defs>
</svg>
