<svg width="40" height="40" viewBox="0 0 40 40" fill="none" xmlns="http://www.w3.org/2000/svg">
<path d="M20 14.4999C20.8284 14.4999 21.5 13.8284 21.5 12.9999C21.5 12.1715 20.8284 11.4999 20 11.4999C19.1716 11.4999 18.5 12.1715 18.5 12.9999C18.5 13.8284 19.1716 14.4999 20 14.4999Z" fill="black" fill-opacity="0.84"/>
<path d="M20 21.4999C20.8284 21.4999 21.5 20.8284 21.5 19.9999C21.5 19.1715 20.8284 18.4999 20 18.4999C19.1716 18.4999 18.5 19.1715 18.5 19.9999C18.5 20.8284 19.1716 21.4999 20 21.4999Z" fill="black" fill-opacity="0.84"/>
<path d="M20 28.4999C20.8284 28.4999 21.5 27.8284 21.5 26.9999C21.5 26.1715 20.8284 25.4999 20 25.4999C19.1716 25.4999 18.5 26.1715 18.5 26.9999C18.5 27.8284 19.1716 28.4999 20 28.4999Z" fill="black" fill-opacity="0.84"/>
</svg>
